<?xml version="1.0" encoding="utf-8"?>
<!-- Generator: Adobe Illustrator 16.0.3, SVG Export Plug-In . SVG Version: 6.00 Build 0)  -->
<!DOCTYPE svg PUBLIC "-//W3C//DTD SVG 1.1//EN" "http://www.w3.org/Graphics/SVG/1.1/DTD/svg11.dtd">
<svg version="1.1" id="Layer_1" xmlns="http://www.w3.org/2000/svg" xmlns:xlink="http://www.w3.org/1999/xlink" x="0px" y="0px"
	 width="30px" height="28.66px" viewBox="0 0 30 28.66" enable-background="new 0 0 30 28.66" xml:space="preserve">
<path fill-rule="evenodd" clip-rule="evenodd" fill="#353535" d="M15,18.333c-8.284,0-15-4.103-15-9.167C0,4.105,6.716,0,15,0
	c8.283,0,15,4.105,15,9.166C30,14.23,23.283,18.333,15,18.333 M4.694,25.954c1.223,0,2.214,0.605,2.214,1.354
	c0,0.746-0.991,1.353-2.214,1.353c-1.221,0-2.214-0.606-2.214-1.353C2.48,26.56,3.473,25.954,4.694,25.954 M4.5,21.8
	c0-1.576,2.091-2.853,4.67-2.853c2.578,0,4.669,1.276,4.669,2.853s-2.091,2.854-4.669,2.854C6.591,24.654,4.5,23.376,4.5,21.8"/>
</svg>
