<?xml version="1.0" encoding="utf-8"?>
<!-- Generator: Adobe Illustrator 16.0.3, SVG Export Plug-In . SVG Version: 6.00 Build 0)  -->
<!DOCTYPE svg PUBLIC "-//W3C//DTD SVG 1.1//EN" "http://www.w3.org/Graphics/SVG/1.1/DTD/svg11.dtd">
<svg version="1.1" id="Layer_1" xmlns="http://www.w3.org/2000/svg" xmlns:xlink="http://www.w3.org/1999/xlink" x="0px" y="0px"
	 width="29.254px" height="30px" viewBox="0 0 29.254 30" enable-background="new 0 0 29.254 30" xml:space="preserve">
<path fill="#353535" d="M10.339,17.756c0,0-3.772-5.318-4.988-6.988C4.134,9.1,3.165,9.757,2.589,10.068
	C1.31,10.873,1.97,11.757,1.97,11.757s1.67,2.967,2.164,3.587c0.496,0.618-0.041,0.68-0.041,0.68s-1.567-2.515-2.287-3.649
	c-0.723-1.133-0.413-1.71-0.145-2.039c0.824-1.073,1.917-1.196,1.917-1.196S3.435,3.5,3.507,2.07c0.071-1.428-0.929-2-1.5-2.07
	c-1.929,0-2,1.57-2,1.57v12.284c-0.067,0.841,0.396,1.531,0.396,1.531s3.032,4.391,3.711,5.132c0.68,0.743,0.639,1.795,0.639,1.795
	v7.688h6.719v-7.979C11.472,18.664,10.339,17.756,10.339,17.756 M29.247,13.854V1.57c0,0-0.07-1.57-1.999-1.57
	c-0.571,0.07-1.571,0.642-1.5,2.07c0.07,1.429-0.071,7.07-0.071,7.07s1.093,0.123,1.918,1.196c0.267,0.329,0.577,0.906-0.146,2.039
	c-0.722,1.134-2.286,3.649-2.286,3.649s-0.537-0.062-0.043-0.68c0.494-0.62,2.164-3.587,2.164-3.587s0.659-0.885-0.617-1.689
	c-0.578-0.311-1.547-0.969-2.763,0.699c-1.217,1.67-4.988,6.988-4.988,6.988s-1.136,0.908-1.136,4.267v7.979h6.722v-7.688
	c0,0-0.041-1.052,0.64-1.795c0.679-0.741,3.709-5.132,3.709-5.132S29.314,14.695,29.247,13.854"/>
</svg>
