<?xml version="1.0" encoding="utf-8"?>
<!-- Generator: Adobe Illustrator 16.0.3, SVG Export Plug-In . SVG Version: 6.00 Build 0)  -->
<!DOCTYPE svg PUBLIC "-//W3C//DTD SVG 1.1//EN" "http://www.w3.org/Graphics/SVG/1.1/DTD/svg11.dtd">
<svg version="1.1" id="Layer_1" xmlns="http://www.w3.org/2000/svg" xmlns:xlink="http://www.w3.org/1999/xlink" x="0px" y="0px"
	 width="23.949px" height="20.055px" viewBox="0 0 23.949 20.055" enable-background="new 0 0 23.949 20.055" xml:space="preserve">
<path d="M2.03,20.055c-1.122,0-2.03-0.909-2.03-2.03c0-1.122,0.908-2.03,2.03-2.03c0.098,0,0.192,0.016,0.287,0.028l4.066-8.695
	c-0.307-0.355-0.499-0.813-0.499-1.32c0-1.121,0.909-2.03,2.03-2.03c1.121,0,2.031,0.909,2.031,2.03
	c0,0.312-0.076,0.604-0.203,0.868l4.311,4.26c0.327-0.227,0.724-0.362,1.154-0.362c0.266,0,0.518,0.053,0.751,0.147l4.653-7.348
	C20.174,3.2,19.889,2.652,19.889,2.03c0-1.121,0.909-2.03,2.031-2.03c1.121,0,2.029,0.909,2.029,2.03
	c0,1.122-0.908,2.031-2.029,2.031c-0.232,0-0.452-0.047-0.66-0.119l-4.674,7.378c0.398,0.371,0.65,0.896,0.65,1.483
	c0,1.121-0.908,2.03-2.029,2.03s-2.031-0.909-2.031-2.03c0-0.422,0.129-0.813,0.35-1.138l-4.227-4.18
	c-0.363,0.34-0.848,0.552-1.385,0.552c-0.336,0-0.648-0.088-0.928-0.233l-3.959,8.461c0.615,0.35,1.034,1.002,1.034,1.759
	C4.061,19.146,3.152,20.055,2.03,20.055"/>
</svg>
