<?xml version="1.0" encoding="utf-8"?>
<!-- Generator: Adobe Illustrator 16.0.3, SVG Export Plug-In . SVG Version: 6.00 Build 0)  -->
<!DOCTYPE svg PUBLIC "-//W3C//DTD SVG 1.1//EN" "http://www.w3.org/Graphics/SVG/1.1/DTD/svg11.dtd">
<svg version="1.1" id="Layer_1" xmlns="http://www.w3.org/2000/svg" xmlns:xlink="http://www.w3.org/1999/xlink" x="0px" y="0px"
	 width="21.853px" height="30px" viewBox="0 0 21.853 30" enable-background="new 0 0 21.853 30" xml:space="preserve">
<path fill="#0E7EA8" d="M18.361,2.79H3.492c0,0-3.432,0.06-3.492,3.612h21.853C21.792,2.85,18.361,2.79,18.361,2.79 M12.903,0H8.95
	c0,0-1.671,0.068-1.671,1.916h7.295C14.573,0.068,12.903,0,12.903,0 M1.716,28.064C1.716,29.134,2.582,30,3.65,30h14.552
	c1.069,0,1.935-0.866,1.935-1.936V7.545H1.716V28.064z M15.348,10.668c0-0.496,0.402-0.898,0.898-0.898s0.897,0.402,0.897,0.898
	V26.56c0,0.495-0.401,0.898-0.897,0.898s-0.898-0.403-0.898-0.898V10.668z M10.028,10.668c0-0.496,0.401-0.898,0.897-0.898
	s0.898,0.402,0.898,0.898V26.56c0,0.495-0.402,0.898-0.898,0.898s-0.897-0.403-0.897-0.898V10.668z M4.708,10.668
	c0-0.496,0.402-0.898,0.898-0.898s0.898,0.402,0.898,0.898V26.56c0,0.495-0.402,0.898-0.898,0.898s-0.898-0.403-0.898-0.898V10.668z
	"/>
</svg>
