<?xml version="1.0" encoding="utf-8"?>
<!-- Generator: Adobe Illustrator 16.0.3, SVG Export Plug-In . SVG Version: 6.00 Build 0)  -->
<!DOCTYPE svg PUBLIC "-//W3C//DTD SVG 1.1//EN" "http://www.w3.org/Graphics/SVG/1.1/DTD/svg11.dtd">
<svg version="1.1" id="Layer_1" xmlns="http://www.w3.org/2000/svg" xmlns:xlink="http://www.w3.org/1999/xlink" x="0px" y="0px"
	 width="30px" height="25.312px" viewBox="0 0 30 25.312" enable-background="new 0 0 30 25.312" xml:space="preserve">
<path fill="#353535" d="M8.496,0H0.629C0.281,0,0,0.281,0,0.629v24.054c0,0.348,0.281,0.629,0.629,0.629h7.866
	c0.347,0,0.629-0.281,0.629-0.629V0.629C9.125,0.281,8.842,0,8.496,0 M4.562,8.656c-1.594,0-2.886-1.292-2.886-2.886
	c0-1.593,1.292-2.885,2.886-2.885c1.593,0,2.885,1.292,2.885,2.885C7.447,7.364,6.155,8.656,4.562,8.656 M18.934,0h-7.867
	c-0.347,0-0.629,0.281-0.629,0.629v24.054c0,0.348,0.282,0.629,0.629,0.629h7.867c0.347,0,0.629-0.281,0.629-0.629V0.629
	C19.562,0.281,19.28,0,18.934,0 M15,8.656c-1.594,0-2.886-1.292-2.886-2.886c0-1.593,1.292-2.885,2.886-2.885
	s2.886,1.292,2.886,2.885C17.886,7.364,16.594,8.656,15,8.656 M29.371,0h-7.866c-0.348,0-0.629,0.281-0.629,0.629v24.054
	c0,0.348,0.281,0.629,0.629,0.629h7.866c0.349,0,0.629-0.281,0.629-0.629V0.629C30,0.281,29.72,0,29.371,0 M25.438,8.656
	c-1.594,0-2.886-1.292-2.886-2.886c0-1.593,1.292-2.885,2.886-2.885s2.885,1.292,2.885,2.885
	C28.323,7.364,27.032,8.656,25.438,8.656"/>
</svg>
