<?xml version="1.0" encoding="utf-8"?>
<!-- Generator: Adobe Illustrator 16.0.3, SVG Export Plug-In . SVG Version: 6.00 Build 0)  -->
<!DOCTYPE svg PUBLIC "-//W3C//DTD SVG 1.1//EN" "http://www.w3.org/Graphics/SVG/1.1/DTD/svg11.dtd">
<svg version="1.1" id="Layer_1" xmlns="http://www.w3.org/2000/svg" xmlns:xlink="http://www.w3.org/1999/xlink" x="0px" y="0px"
	 width="27.577px" height="30px" viewBox="0 0 27.577 30" enable-background="new 0 0 27.577 30" xml:space="preserve">
<path fill="#4B4A4A" d="M0,28.789C0,29.458,0.542,30,1.212,30h25.153c0.669,0,1.212-0.542,1.212-1.211V8.514H0V28.789z
	 M20.364,10.904h4.824v4.785h-4.824V10.904z M20.364,16.945h4.824v4.785h-4.824V16.945z M20.364,22.905h4.824v4.785h-4.824V22.905z
	 M14.311,10.904h4.824v4.785h-4.824V10.904z M14.311,16.945h4.824v4.785h-4.824V16.945z M14.311,22.905h4.824v4.785h-4.824V22.905z
	 M8.257,10.904h4.824v4.785H8.257V10.904z M8.257,16.945h4.824v4.785H8.257V16.945z M8.257,22.905h4.824v4.785H8.257V22.905z
	 M2.203,10.904h4.825v4.785H2.203V10.904z M2.203,16.945h4.825v4.785H2.203V16.945z M2.203,22.905h4.825v4.785H2.203V22.905z
	 M26.365,3.666h-4.772V0H19.24v3.666H8.336V0h-2.35v3.666H1.212C0.542,3.666,0,4.209,0,4.878v1.973h27.578V4.878
	C27.577,4.209,27.034,3.666,26.365,3.666"/>
</svg>
