<?xml version="1.0" encoding="utf-8"?>
<!-- Generator: Adobe Illustrator 16.0.3, SVG Export Plug-In . SVG Version: 6.00 Build 0)  -->
<!DOCTYPE svg PUBLIC "-//W3C//DTD SVG 1.1//EN" "http://www.w3.org/Graphics/SVG/1.1/DTD/svg11.dtd">
<svg version="1.1" id="Layer_1" xmlns="http://www.w3.org/2000/svg" xmlns:xlink="http://www.w3.org/1999/xlink" x="0px" y="0px"
	 width="30px" height="21.779px" viewBox="0 0 30 21.779" enable-background="new 0 0 30 21.779" xml:space="preserve">
<path fill-rule="evenodd" clip-rule="evenodd" fill="#353535" d="M27.2,0H2.799C1.254,0,0,1.252,0,2.799V18.98
	c0,1.545,1.254,2.799,2.799,2.799H27.2c1.547,0,2.8-1.254,2.8-2.799V2.799C30,1.252,28.747,0,27.2,0 M11.43,13.628h1.874v2.742
	H11.43V13.628z M7.664,13.628h1.874v2.742H7.664V13.628z M3.896,13.628H5.77v2.742H3.896V13.628z M14.279,19.327H4.04V17.74h10.24
	V19.327z M17.074,16.371h-1.875v-2.742h1.875V16.371z M20.841,16.371h-1.874v-2.742h1.874V16.371z M22.212,8.509
	c-1.274,0-2.308-1.033-2.308-2.308c0-1.273,1.033-2.307,2.308-2.307s2.308,1.034,2.308,2.307C24.52,7.476,23.486,8.509,22.212,8.509
	 M25.817,8.509c-0.421,0-0.81-0.121-1.151-0.32c0.442-0.544,0.719-1.23,0.719-1.988c0-0.756-0.276-1.442-0.719-1.987
	c0.34-0.198,0.729-0.32,1.151-0.32c1.274,0,2.308,1.034,2.308,2.307C28.125,7.476,27.092,8.509,25.817,8.509"/>
</svg>
