<?xml version="1.0" encoding="utf-8"?>
<!-- Generator: Adobe Illustrator 16.0.3, SVG Export Plug-In . SVG Version: 6.00 Build 0)  -->
<!DOCTYPE svg PUBLIC "-//W3C//DTD SVG 1.1//EN" "http://www.w3.org/Graphics/SVG/1.1/DTD/svg11.dtd">
<svg version="1.1" id="Layer_1" xmlns="http://www.w3.org/2000/svg" xmlns:xlink="http://www.w3.org/1999/xlink" x="0px" y="0px"
	 width="30px" height="29.889px" viewBox="0 0 30 29.889" enable-background="new 0 0 30 29.889" xml:space="preserve">
<path fill-rule="evenodd" clip-rule="evenodd" fill="#0E7EA8" d="M21.838,0c0.607,0.026,1.479,0.18,1.91,0.452
	c-5.794,5.81-11.587,11.621-17.379,17.431H6.317c-0.819,0.049-1.64,0.101-2.461,0.151C9.85,12.023,15.845,6.011,21.838,0
	 M25.505,1.306c1.056,0.955,2.111,1.909,3.166,2.863c-2.06,2.059-4.12,4.119-6.178,6.179c-3.902,3.917-7.803,7.835-11.705,11.754
	c-0.604-0.071-2.191-0.26-2.562-0.653c-0.184-0.77-0.368-1.54-0.553-2.311C13.618,13.195,19.562,7.249,25.505,1.306 M29.575,5.928
	c0.252,0.282,0.57,1.448,0.351,1.959c-5.91,5.926-11.821,11.855-17.732,17.782h-0.05c-0.05-0.737-0.1-1.474-0.15-2.211
	C17.853,17.615,23.714,11.77,29.575,5.928 M4.961,19.792h1.055c0.218,1.104,0.436,2.21,0.653,3.314
	c1.189,0.252,2.377,0.503,3.566,0.754c0.051,1.088,0.1,2.177,0.151,3.265c-1.775,0.553-3.55,1.105-5.325,1.658
	c-0.765-1.579-2.28-3.402-4.019-3.969c0.554-1.641,1.107-3.281,1.659-4.924C3.454,19.858,4.208,19.825,4.961,19.792 M0.44,26.573
	c1.19,0.462,2.308,1.646,2.864,2.763c-0.536,0.167-1.072,0.334-1.609,0.502C-0.624,30.283-0.044,27.693,0.44,26.573"/>
</svg>
