<?xml version="1.0" encoding="utf-8"?>
<!-- Generator: Adobe Illustrator 16.0.3, SVG Export Plug-In . SVG Version: 6.00 Build 0)  -->
<!DOCTYPE svg PUBLIC "-//W3C//DTD SVG 1.1//EN" "http://www.w3.org/Graphics/SVG/1.1/DTD/svg11.dtd">
<svg version="1.1" id="Layer_1" xmlns="http://www.w3.org/2000/svg" xmlns:xlink="http://www.w3.org/1999/xlink" x="0px" y="0px"
	 width="30px" height="20.201px" viewBox="0 0 30 20.201" enable-background="new 0 0 30 20.201" xml:space="preserve">
<path fill-rule="evenodd" clip-rule="evenodd" fill="#B5BE34" d="M22.061,3.113v16.963l7.918-2.235L30,1.022L22.061,3.113z
	 M24.891,10.988l-1.085,1.085c-0.195,0.196-0.513,0.196-0.709,0c-0.195-0.195-0.195-0.514,0-0.709l1.085-1.085
	c0.196-0.195,0.515-0.195,0.709,0C25.087,10.476,24.891,10.988,24.891,10.988 M27.9,7.981l-1.085,1.083
	c-0.196,0.197-0.515,0.197-0.709,0c-0.196-0.195-0.196-0.512,0-0.708l1.084-1.085c0.196-0.196,0.514-0.196,0.71,0
	C28.096,7.467,27.9,7.981,27.9,7.981 M18.009,17.131l3.008,3.07v-7.457c-0.012,0.109-0.053,0.217-0.137,0.301
	c-0.196,0.196-0.512,0.196-0.709,0l-1.085-1.085c-0.196-0.195-0.196-0.513,0-0.709c0.196-0.195,0.513-0.195,0.709,0l1.085,1.085
	c0.084,0.084,0.125,0.192,0.137,0.302V3.029l-2.944-3.008L18.009,17.131z M0,17.131l8.901,2.841l0.083-16.88L0,0.083V17.131z
	 M6.487,14.106h1.127c0.277,0,0.502,0.225,0.502,0.502c0,0.276-0.225,0.501-0.502,0.501H6.487c-0.278,0-0.502-0.225-0.502-0.501
	C5.985,14.331,6.209,14.106,6.487,14.106 M4.044,11.251c0.197-0.195,0.513-0.195,0.709,0l1.085,1.085
	c0.197,0.196,0.197,0.514,0,0.709c-0.195,0.196-0.512,0.196-0.709,0L4.044,11.96C3.848,11.765,3.848,11.447,4.044,11.251
	 M1.036,8.243c0.196-0.196,0.513-0.196,0.709,0l1.086,1.084c0.195,0.195,0.195,0.515,0,0.709c-0.197,0.195-0.514,0.195-0.709,0
	L1.036,8.952C0.84,8.756,0.84,8.438,1.036,8.243 M9.987,20.139l6.935-3.175L16.964,0L9.987,3.134V20.139z M14.073,11.364
	l1.084-1.085c0.195-0.195,0.513-0.195,0.709,0c0.195,0.197,0,0.709,0,0.709l-1.084,1.085c-0.197,0.196-0.514,0.196-0.709,0
	C13.876,11.878,13.876,11.56,14.073,11.364 M11.064,14.373l1.085-1.085c0.195-0.196,0.514-0.196,0.709,0
	c0.195,0.195,0,0.709,0,0.709l-1.085,1.085c-0.196,0.196-0.513,0.196-0.709,0S10.868,14.569,11.064,14.373"/>
</svg>
