<?xml version="1.0" encoding="utf-8"?>
<!-- Generator: Adobe Illustrator 16.0.3, SVG Export Plug-In . SVG Version: 6.00 Build 0)  -->
<!DOCTYPE svg PUBLIC "-//W3C//DTD SVG 1.1//EN" "http://www.w3.org/Graphics/SVG/1.1/DTD/svg11.dtd">
<svg version="1.1" id="Layer_1" xmlns="http://www.w3.org/2000/svg" xmlns:xlink="http://www.w3.org/1999/xlink" x="0px" y="0px"
	 width="94.953px" height="119.258px" viewBox="0 0 94.953 119.258" enable-background="new 0 0 94.953 119.258"
	 xml:space="preserve">
<path fill="#353535" d="M52.824,94.305c-11.991,0-18.958-5.51-22.847-12.153v37.106h-11.18C6.482,119.258,0,112.776,0,97.708V50.555
	C0,18.634,17.662,0,49.259,0c26.088,0,45.694,17.662,45.694,45.208C94.953,75.671,77.13,94.305,52.824,94.305 M45.694,23.495
	c-8.426,0-15.231,8.102-15.231,21.227c0,18.958,8.102,25.603,18.634,25.603c9.723,0,15.07-8.59,15.07-21.875
	C64.167,29.328,58.333,23.495,45.694,23.495"/>
</svg>
