<?xml version="1.0" encoding="utf-8"?>
<!-- Generator: Adobe Illustrator 16.0.3, SVG Export Plug-In . SVG Version: 6.00 Build 0)  -->
<!DOCTYPE svg PUBLIC "-//W3C//DTD SVG 1.1//EN" "http://www.w3.org/Graphics/SVG/1.1/DTD/svg11.dtd">
<svg version="1.1" id="Layer_1" xmlns="http://www.w3.org/2000/svg" xmlns:xlink="http://www.w3.org/1999/xlink" x="0px" y="0px"
	 width="31.667px" height="31.667px" viewBox="0 0 31.667 31.667" enable-background="new 0 0 31.667 31.667" xml:space="preserve">
<path fill="#474747" d="M15.833,0c4.618,0,6.597,2.639,5.931,8.178c0.595,0.341,0.996,0.983,0.996,1.718
	c0,0.899-0.601,1.659-1.422,1.899c-0.344,1.224-0.877,2.307-1.548,3.174v4.164c2.199,0.439,3.959,0.659,6.598,1.979
	s3.519,2.529,5.277,4.288v6.268H0v-6.268c1.759-1.759,2.638-2.969,5.277-4.288s4.399-1.539,6.598-1.979v-4.164
	c-0.671-0.867-1.204-1.95-1.547-3.174c-0.822-0.24-1.422-1-1.422-1.899c0-0.735,0.401-1.377,0.996-1.718
	C9.236,2.639,11.215,0,15.833,0"/>
</svg>
